<svg width="150" height="45" viewBox="0 0 150 45" fill="none" xmlns="http://www.w3.org/2000/svg">
<g clip-path="url(#clip0_25_278)">
<path d="M143.977 44.9856H5.96228C3.09458 44.9856 0.760376 42.6448 0.760376 39.7793V6.1842C0.760376 3.3176 3.09458 0.985596 5.96228 0.985596H143.977C146.844 0.985596 149.26 3.3176 149.26 6.1842V39.7793C149.26 42.6448 146.844 44.9856 143.977 44.9856Z" fill="white"/>
<path d="M148.196 39.7804C148.196 42.108 146.31 43.9934 143.978 43.9934H5.96228C3.63138 43.9934 1.73938 42.108 1.73938 39.7804V6.1831C1.73938 3.8566 3.63138 1.9646 5.96228 1.9646H143.977C146.31 1.9646 148.194 3.8566 148.194 6.1831L148.196 39.7804Z" fill="black"/>
<path d="M33.9012 22.7479C33.8693 19.2026 36.8041 17.4778 36.9383 17.3975C35.2762 14.9742 32.7 14.6431 31.7947 14.6167C29.631 14.389 27.5322 15.9114 26.43 15.9114C25.3058 15.9114 23.6085 14.6387 21.7792 14.6761C19.4252 14.7124 17.223 16.0753 16.0152 18.1917C13.5226 22.507 15.3816 28.8485 17.7697 32.3366C18.9643 34.0449 20.3602 35.9523 22.1873 35.8852C23.9748 35.8115 24.6425 34.7456 26.7996 34.7456C28.9369 34.7456 29.5639 35.8852 31.4273 35.8423C33.3457 35.8115 34.5535 34.1263 35.7063 32.4026C37.0868 30.4446 37.6412 28.5163 37.6632 28.4173C37.6181 28.4019 33.9375 26.9972 33.9012 22.7479Z" fill="white"/>
<path d="M30.3812 12.3221C31.3426 11.1198 32.0004 9.48412 31.8178 7.82422C30.4263 7.88582 28.6861 8.78672 27.684 9.96262C26.7974 10.9988 26.0054 12.6972 26.21 14.2944C27.7731 14.411 29.378 13.5057 30.3812 12.3221Z" fill="white"/>
<path d="M59.7699 35.64H57.2718L55.9034 31.3401H51.147L49.8435 35.64H47.4114L52.1238 21.0012H55.0344L59.7699 35.64ZM55.4909 29.5361L54.2534 25.7136C54.1225 25.3231 53.8772 24.4035 53.5153 22.9559H53.4713C53.3272 23.5785 53.0951 24.4981 52.7761 25.7136L51.5606 29.5361H55.4909Z" fill="white"/>
<path d="M71.8886 30.2324C71.8886 32.0276 71.4034 33.4466 70.4332 34.4883C69.5642 35.4156 68.4851 35.8787 67.197 35.8787C65.8066 35.8787 64.8078 35.3793 64.1995 34.3805H64.1555V39.941H61.8103V28.5593C61.8103 27.4307 61.7806 26.2724 61.7234 25.0844H63.7859L63.9168 26.7575H63.9609C64.743 25.4969 65.9298 24.8677 67.5226 24.8677C68.7678 24.8677 69.8073 25.3594 70.6389 26.3439C71.4727 27.3295 71.8886 28.6253 71.8886 30.2324ZM69.4994 30.3182C69.4994 29.2908 69.2684 28.4438 68.8042 27.7772C68.297 27.082 67.6161 26.7344 66.7625 26.7344C66.1839 26.7344 65.6581 26.928 65.1884 27.3097C64.7176 27.6947 64.4096 28.1974 64.2655 28.82C64.1929 29.1104 64.1566 29.348 64.1566 29.535V31.295C64.1566 32.0628 64.392 32.7107 64.8628 33.2398C65.3336 33.7689 65.9452 34.0329 66.6976 34.0329C67.5809 34.0329 68.2684 33.6919 68.7601 33.0121C69.2529 32.3312 69.4994 31.4336 69.4994 30.3182Z" fill="white"/>
<path d="M84.0292 30.2324C84.0292 32.0276 83.5441 33.4466 82.5728 34.4883C81.7049 35.4156 80.6258 35.8787 79.3377 35.8787C77.9473 35.8787 76.9485 35.3793 76.3413 34.3805H76.2973V39.941H73.9521V28.5593C73.9521 27.4307 73.9224 26.2724 73.8652 25.0844H75.9277L76.0586 26.7575H76.1026C76.8836 25.4969 78.0705 24.8677 79.6644 24.8677C80.9085 24.8677 81.948 25.3594 82.7818 26.3439C83.6123 27.3295 84.0292 28.6253 84.0292 30.2324ZM81.64 30.3182C81.64 29.2908 81.4079 28.4438 80.9437 27.7772C80.4366 27.082 79.7579 26.7344 78.9032 26.7344C78.3235 26.7344 77.7988 26.928 77.328 27.3097C76.8572 27.6947 76.5503 28.1974 76.4062 28.82C76.3347 29.1104 76.2973 29.348 76.2973 29.535V31.295C76.2973 32.0628 76.5327 32.7107 77.0013 33.2398C77.4721 33.7678 78.0837 34.0329 78.8383 34.0329C79.7216 34.0329 80.4091 33.6919 80.9008 33.0121C81.3936 32.3312 81.64 31.4336 81.64 30.3182Z" fill="white"/>
<path d="M97.6032 31.5347C97.6032 32.7799 97.1709 33.793 96.303 34.5751C95.3493 35.4298 94.0216 35.8566 92.3155 35.8566C90.7403 35.8566 89.4775 35.553 88.5216 34.9447L89.065 32.99C90.0946 33.6126 91.2243 33.925 92.4552 33.925C93.3385 33.925 94.026 33.7248 94.5199 33.3266C95.0116 32.9284 95.2569 32.3938 95.2569 31.7272C95.2569 31.1332 95.0545 30.6327 94.6486 30.2268C94.2449 29.8209 93.5706 29.4436 92.629 29.0949C90.066 28.139 88.7856 26.7387 88.7856 24.8973C88.7856 23.6939 89.2344 22.7072 90.1331 21.9394C91.0285 21.1705 92.2231 20.7866 93.7169 20.7866C95.049 20.7866 96.1556 21.0187 97.0389 21.4818L96.4526 23.3936C95.6276 22.9448 94.6948 22.7204 93.6509 22.7204C92.8259 22.7204 92.1813 22.9239 91.7193 23.3287C91.3288 23.6906 91.133 24.1317 91.133 24.6542C91.133 25.2328 91.3563 25.7113 91.8051 26.0875C92.1956 26.4351 92.9051 26.8113 93.9347 27.2172C95.1942 27.7243 96.1193 28.3172 96.7144 28.997C97.3073 29.6746 97.6032 30.5227 97.6032 31.5347Z" fill="white"/>
<path d="M105.357 26.8444H102.772V31.9693C102.772 33.2728 103.228 33.924 104.141 33.924C104.56 33.924 104.907 33.8877 105.182 33.8151L105.247 35.596C104.785 35.7687 104.177 35.8556 103.423 35.8556C102.497 35.8556 101.773 35.5729 101.251 35.0086C100.731 34.4432 100.469 33.495 100.469 32.1629V26.8422H98.9287V25.0822H100.469V23.1495L102.772 22.4543V25.0822H105.357V26.8444Z" fill="white"/>
<path d="M117.02 30.2754C117.02 31.8979 116.556 33.23 115.63 34.2717C114.659 35.3442 113.37 35.8788 111.762 35.8788C110.214 35.8788 108.981 35.3651 108.061 34.3377C107.141 33.3103 106.682 32.0134 106.682 30.4503C106.682 28.8146 107.155 27.4748 108.104 26.4331C109.051 25.3903 110.329 24.8689 111.936 24.8689C113.485 24.8689 114.731 25.3826 115.672 26.4111C116.572 27.4088 117.02 28.6969 117.02 30.2754ZM114.587 30.3513C114.587 29.3778 114.379 28.5429 113.958 27.8466C113.466 27.004 112.763 26.5838 111.853 26.5838C110.91 26.5838 110.194 27.0051 109.702 27.8466C109.281 28.544 109.073 29.3921 109.073 30.3953C109.073 31.3688 109.281 32.2037 109.702 32.8989C110.209 33.7415 110.918 34.1617 111.832 34.1617C112.727 34.1617 113.43 33.7327 113.937 32.8769C114.369 32.1674 114.587 31.3237 114.587 30.3513Z" fill="white"/>
<path d="M124.643 27.1469C124.411 27.104 124.164 27.082 123.904 27.082C123.079 27.082 122.441 27.3933 121.992 28.017C121.602 28.567 121.406 29.2622 121.406 30.1015V35.64H119.062L119.084 28.4086C119.084 27.192 119.054 26.0843 118.996 25.0855H121.039L121.125 27.1051H121.189C121.437 26.411 121.827 25.8522 122.362 25.4331C122.885 25.0558 123.449 24.8677 124.057 24.8677C124.274 24.8677 124.47 24.8831 124.643 24.9106V27.1469Z" fill="white"/>
<path d="M135.132 29.8628C135.132 30.283 135.104 30.6372 135.046 30.9265H128.011C128.038 31.9693 128.378 32.7668 129.031 33.3168C129.624 33.8085 130.391 34.0549 131.333 34.0549C132.374 34.0549 133.325 33.8888 134.179 33.5555L134.547 35.1835C133.548 35.6191 132.369 35.8358 131.008 35.8358C129.371 35.8358 128.086 35.354 127.151 34.3915C126.219 33.429 125.751 32.1365 125.751 30.5151C125.751 28.9234 126.186 27.5979 127.056 26.5408C127.967 25.4122 129.197 24.8479 130.746 24.8479C132.268 24.8479 133.419 25.4122 134.201 26.5408C134.821 27.4373 135.132 28.5461 135.132 29.8628ZM132.896 29.2545C132.911 28.5593 132.758 27.9587 132.44 27.4516C132.034 26.7993 131.411 26.4737 130.571 26.4737C129.805 26.4737 129.181 26.7916 128.705 27.4296C128.314 27.9367 128.082 28.545 128.011 29.2534H132.896V29.2545Z" fill="white"/>
<path d="M54.7154 11.9957C54.7154 13.2904 54.3271 14.265 53.5516 14.9195C52.8333 15.5234 51.8125 15.8259 50.4903 15.8259C49.8347 15.8259 49.2737 15.7973 48.804 15.7401V8.66596C49.4167 8.56696 50.0767 8.51636 50.7895 8.51636C52.049 8.51636 52.9983 8.79026 53.6385 9.33806C54.3557 9.95736 54.7154 10.8429 54.7154 11.9957ZM53.4999 12.0276C53.4999 11.1883 53.2777 10.5448 52.8333 10.096C52.3889 9.64826 51.7399 9.42386 50.8852 9.42386C50.5222 9.42386 50.2131 9.44806 49.9568 9.49866V14.8766C50.0987 14.8986 50.3583 14.9085 50.7356 14.9085C51.6178 14.9085 52.2987 14.6632 52.7783 14.1726C53.2579 13.682 53.4999 12.967 53.4999 12.0276Z" fill="white"/>
<path d="M61.1602 13.1263C61.1602 13.9238 60.9325 14.5772 60.4771 15.0898C59.9997 15.6167 59.3672 15.8796 58.5774 15.8796C57.8162 15.8796 57.2101 15.6277 56.758 15.1217C56.307 14.6168 56.0815 13.9799 56.0815 13.2121C56.0815 12.4091 56.3136 11.7502 56.78 11.2387C57.2464 10.7272 57.8734 10.4709 58.6632 10.4709C59.4244 10.4709 60.036 10.7228 60.4991 11.2277C60.9391 11.7183 61.1602 12.3519 61.1602 13.1263ZM59.9645 13.1637C59.9645 12.6852 59.8611 12.2749 59.6554 11.9328C59.4134 11.5192 59.0691 11.3124 58.6214 11.3124C58.1583 11.3124 57.8063 11.5192 57.5643 11.9328C57.3575 12.2749 57.2552 12.6918 57.2552 13.1846C57.2552 13.6631 57.3586 14.0734 57.5643 14.4155C57.814 14.8291 58.1616 15.0359 58.6104 15.0359C59.0504 15.0359 59.3958 14.8258 59.6444 14.4045C59.8578 14.0558 59.9645 13.6422 59.9645 13.1637Z" fill="white"/>
<path d="M69.8019 10.5764L68.1794 15.7618H67.1234L66.4513 13.5101C66.2808 12.948 66.1422 12.3892 66.0344 11.8348H66.0135C65.9134 12.4046 65.7748 12.9623 65.5966 13.5101L64.8827 15.7618H63.8146L62.2889 10.5764H63.4736L64.0599 13.0415C64.2018 13.6245 64.3184 14.18 64.4119 14.7058H64.4328C64.5186 14.2724 64.6605 13.7202 64.8607 13.0525L65.5966 10.5775H66.536L67.2411 12.9997C67.4116 13.5904 67.5502 14.1591 67.6569 14.7069H67.6888C67.7669 14.1734 67.8846 13.6047 68.0408 12.9997L68.67 10.5775H69.8019V10.5764Z" fill="white"/>
<path d="M75.7782 15.7618H74.6254V12.7918C74.6254 11.8766 74.2778 11.419 73.5804 11.419C73.2383 11.419 72.9622 11.5444 72.7477 11.7963C72.5354 12.0482 72.4276 12.3452 72.4276 12.6851V15.7607H71.2748V12.0581C71.2748 11.6027 71.2605 11.1088 71.233 10.5742H72.2461L72.3 11.3849H72.3319C72.4661 11.133 72.6663 10.9251 72.9292 10.759C73.2416 10.5654 73.5914 10.4675 73.9742 10.4675C74.4582 10.4675 74.8608 10.6237 75.1809 10.9372C75.5791 11.3211 75.7782 11.8942 75.7782 12.6554V15.7618Z" fill="white"/>
<path d="M78.9571 15.762H77.8054V8.19727H78.9571V15.762Z" fill="white"/>
<path d="M85.7442 13.1263C85.7442 13.9238 85.5165 14.5772 85.0611 15.0898C84.5837 15.6167 83.9501 15.8796 83.1614 15.8796C82.3991 15.8796 81.793 15.6277 81.342 15.1217C80.891 14.6168 80.6655 13.9799 80.6655 13.2121C80.6655 12.4091 80.8976 11.7502 81.364 11.2387C81.8304 10.7272 82.4574 10.4709 83.2461 10.4709C84.0084 10.4709 84.6189 10.7228 85.0831 11.2277C85.5231 11.7183 85.7442 12.3519 85.7442 13.1263ZM84.5474 13.1637C84.5474 12.6852 84.444 12.2749 84.2383 11.9328C83.9974 11.5192 83.652 11.3124 83.2054 11.3124C82.7412 11.3124 82.3892 11.5192 82.1483 11.9328C81.9415 12.2749 81.8392 12.6918 81.8392 13.1846C81.8392 13.6631 81.9426 14.0734 82.1483 14.4155C82.398 14.8291 82.7456 15.0359 83.1944 15.0359C83.6344 15.0359 83.9787 14.8258 84.2273 14.4045C84.4418 14.0558 84.5474 13.6422 84.5474 13.1637Z" fill="white"/>
<path d="M91.3233 15.7619H90.2882L90.2024 15.1646H90.1705C89.8163 15.6409 89.3114 15.8796 88.6558 15.8796C88.1663 15.8796 87.7703 15.7223 87.4722 15.4099C87.2016 15.1261 87.0663 14.773 87.0663 14.3539C87.0663 13.7203 87.3303 13.2374 87.8616 12.903C88.3918 12.5686 89.1376 12.4047 90.0979 12.4124V12.3156C90.0979 11.6325 89.7393 11.2915 89.021 11.2915C88.5095 11.2915 88.0585 11.4202 87.6691 11.6754L87.4348 10.9186C87.9166 10.6205 88.5117 10.4709 89.2135 10.4709C90.5687 10.4709 91.2485 11.1859 91.2485 12.6159V14.5255C91.2485 15.0436 91.2738 15.4561 91.3233 15.7619ZM90.1265 13.9799V13.1802C88.8549 13.1582 88.2191 13.5069 88.2191 14.2252C88.2191 14.4958 88.2917 14.6982 88.4402 14.8335C88.5887 14.9688 88.7779 15.0359 89.0034 15.0359C89.2564 15.0359 89.4929 14.9556 89.7085 14.7961C89.9252 14.6355 90.0583 14.432 90.1078 14.1823C90.1199 14.1262 90.1265 14.058 90.1265 13.9799Z" fill="white"/>
<path d="M97.8738 15.762H96.8508L96.7969 14.9293H96.765C96.4383 15.5629 95.8817 15.8797 95.0996 15.8797C94.4748 15.8797 93.9545 15.6344 93.542 15.1438C93.1295 14.6532 92.9238 14.0163 92.9238 13.2342C92.9238 12.3949 93.1471 11.7151 93.5959 11.1959C94.0304 10.7119 94.5628 10.4699 95.1964 10.4699C95.8927 10.4699 96.38 10.7042 96.6572 11.1739H96.6792V8.19727H97.8331V14.365C97.8331 14.8699 97.8463 15.3352 97.8738 15.762ZM96.6792 13.5752V12.7106C96.6792 12.561 96.6682 12.44 96.6473 12.3476C96.5824 12.0704 96.4427 11.8372 96.2304 11.6491C96.0159 11.461 95.7574 11.3664 95.4593 11.3664C95.0292 11.3664 94.6926 11.5369 94.4451 11.879C94.1998 12.2211 94.0755 12.6578 94.0755 13.1913C94.0755 13.7039 94.1932 14.1197 94.4297 14.4398C94.6794 14.7808 95.016 14.9513 95.4373 14.9513C95.8157 14.9513 96.1182 14.8094 96.3481 14.5245C96.5703 14.2616 96.6792 13.9448 96.6792 13.5752Z" fill="white"/>
<path d="M107.733 13.1263C107.733 13.9238 107.505 14.5772 107.05 15.0898C106.573 15.6167 105.941 15.8796 105.15 15.8796C104.39 15.8796 103.784 15.6277 103.331 15.1217C102.88 14.6168 102.654 13.9799 102.654 13.2121C102.654 12.4091 102.887 11.7502 103.353 11.2387C103.819 10.7272 104.446 10.4709 105.237 10.4709C105.997 10.4709 106.61 10.7228 107.072 11.2277C107.512 11.7183 107.733 12.3519 107.733 13.1263ZM106.539 13.1637C106.539 12.6852 106.435 12.2749 106.229 11.9328C105.986 11.5192 105.643 11.3124 105.194 11.3124C104.732 11.3124 104.38 11.5192 104.137 11.9328C103.93 12.2749 103.828 12.6918 103.828 13.1846C103.828 13.6631 103.932 14.0734 104.137 14.4155C104.387 14.8291 104.735 15.0359 105.183 15.0359C105.623 15.0359 105.97 14.8258 106.218 14.4045C106.431 14.0558 106.539 13.6422 106.539 13.1637Z" fill="white"/>
<path d="M113.932 15.7618H112.78V12.7918C112.78 11.8766 112.432 11.419 111.734 11.419C111.392 11.419 111.116 11.5444 110.902 11.7963C110.689 12.0482 110.582 12.3452 110.582 12.6851V15.7607H109.428V12.0581C109.428 11.6027 109.415 11.1088 109.388 10.5742H110.4L110.453 11.3849H110.485C110.621 11.133 110.821 10.9251 111.083 10.759C111.396 10.5654 111.745 10.4675 112.129 10.4675C112.612 10.4675 113.014 10.6237 113.334 10.9372C113.734 11.3211 113.932 11.8942 113.932 12.6554V15.7618Z" fill="white"/>
<path d="M121.69 11.4401H120.42V13.9591C120.42 14.5993 120.646 14.9194 121.093 14.9194C121.299 14.9194 121.471 14.9018 121.606 14.8655L121.636 15.74C121.408 15.8258 121.109 15.8687 120.741 15.8687C120.285 15.8687 119.931 15.7301 119.675 15.4529C119.417 15.1757 119.29 14.7093 119.29 14.0548V11.4401H118.532V10.5766H119.29V9.62616L120.419 9.28516V10.5755H121.689V11.4401H121.69Z" fill="white"/>
<path d="M127.793 15.762H126.639V12.814C126.639 11.8845 126.291 11.4192 125.595 11.4192C125.06 11.4192 124.695 11.6887 124.495 12.2277C124.461 12.341 124.441 12.4796 124.441 12.6424V15.7609H123.289V8.19727H124.441V11.3224H124.463C124.826 10.7537 125.346 10.4699 126.021 10.4699C126.498 10.4699 126.893 10.6261 127.206 10.9396C127.597 11.3301 127.793 11.9109 127.793 12.6787V15.762Z" fill="white"/>
<path d="M134.088 12.9238C134.088 13.1306 134.073 13.3044 134.045 13.4463H130.588C130.603 13.9589 130.768 14.3494 131.088 14.62C131.381 14.862 131.758 14.983 132.22 14.983C132.732 14.983 133.198 14.9016 133.618 14.7377L133.799 15.5385C133.307 15.7519 132.728 15.8586 132.059 15.8586C131.256 15.8586 130.623 15.6221 130.165 15.1491C129.706 14.6761 129.478 14.0414 129.478 13.245C129.478 12.4629 129.69 11.8117 130.118 11.2925C130.565 10.7381 131.169 10.4609 131.931 10.4609C132.677 10.4609 133.243 10.7381 133.626 11.2925C133.935 11.7325 134.088 12.277 134.088 12.9238ZM132.988 12.6257C132.997 12.2836 132.921 11.9888 132.765 11.7402C132.565 11.4201 132.26 11.2595 131.847 11.2595C131.471 11.2595 131.164 11.4157 130.93 11.7292C130.739 11.9789 130.625 12.277 130.588 12.6257H132.988Z" fill="white"/>
</g>
<defs>
<clipPath id="clip0_25_278">
<rect width="148.5" height="44" fill="white" transform="translate(0.760376 0.985596)"/>
</clipPath>
</defs>
</svg>
