<svg width="41" height="61" viewBox="0 0 41 61" fill="none" xmlns="http://www.w3.org/2000/svg">
<path d="M15.3631 44.153C15.3632 44.185 15.3752 44.2157 15.3968 44.2393C15.4185 44.2628 15.4482 44.2773 15.48 44.28L15.4751 44.4295C15.4606 44.4295 15.4459 44.4295 15.4311 44.4295C15.2483 44.4294 15.0669 44.4611 14.8949 44.5233L14.849 44.3984C14.878 44.3859 14.9013 44.3631 14.9145 44.3344C14.9276 44.3057 14.9297 44.2731 14.9202 44.2429C14.9107 44.2128 14.8904 44.1872 14.8632 44.1712C14.8359 44.1552 14.8037 44.1499 14.7728 44.1562C14.7418 44.1626 14.7143 44.1802 14.6956 44.2056C14.6769 44.2311 14.6683 44.2626 14.6715 44.294C14.6746 44.3255 14.6894 44.3546 14.7128 44.3758C14.7362 44.397 14.7667 44.4088 14.7982 44.4088C14.8109 44.4088 14.8235 44.407 14.8356 44.4033L14.8816 44.5282C14.6889 44.6002 14.5123 44.7095 14.3619 44.8499L14.27 44.7522C14.2928 44.7282 14.3054 44.6962 14.3051 44.663C14.3047 44.6299 14.2914 44.5982 14.2681 44.5747C14.2447 44.5511 14.2131 44.5377 14.1799 44.5371C14.1468 44.5365 14.1147 44.5489 14.0906 44.5717C14.0664 44.5944 14.0521 44.6256 14.0506 44.6587C14.0491 44.6918 14.0606 44.7242 14.0826 44.749C14.1047 44.7738 14.1355 44.789 14.1686 44.7914C14.2016 44.7938 14.2343 44.7832 14.2597 44.7618L14.3516 44.8596C14.3411 44.8697 14.3305 44.8798 14.3201 44.8902C14.1744 45.0355 14.0586 45.2079 13.9793 45.3978L13.8485 45.344C13.8585 45.3124 13.8558 45.2781 13.8409 45.2484C13.8261 45.2188 13.8002 45.1961 13.7688 45.1852C13.7375 45.1743 13.7031 45.176 13.6731 45.1901C13.643 45.2041 13.6196 45.2293 13.6078 45.2604C13.596 45.2914 13.5968 45.3258 13.61 45.3562C13.6232 45.3867 13.6478 45.4108 13.6785 45.4234C13.7092 45.4361 13.7436 45.4362 13.7744 45.4239C13.8052 45.4116 13.83 45.3877 13.8435 45.3574L13.9741 45.411C13.9055 45.5806 13.8672 45.761 13.8608 45.9438L13.6817 45.938V45.9339C13.6821 45.9004 13.6695 45.868 13.6466 45.8436C13.6236 45.8192 13.5921 45.8047 13.5586 45.803C13.5252 45.8014 13.4924 45.8128 13.4672 45.8349C13.442 45.857 13.4263 45.888 13.4235 45.9214C13.4207 45.9548 13.431 45.9879 13.4521 46.0139C13.4733 46.0399 13.5037 46.0566 13.537 46.0606C13.5702 46.0646 13.6038 46.0555 13.6305 46.0353C13.6572 46.015 13.675 45.9852 13.6801 45.9521L13.86 45.9579C13.86 45.9733 13.8592 45.9872 13.8592 46.0019C13.8591 46.1776 13.8883 46.352 13.9456 46.5181L13.7996 46.5695C13.7876 46.5402 13.7651 46.5163 13.7365 46.5026C13.7079 46.4889 13.6752 46.4864 13.6447 46.4955C13.6143 46.5046 13.5884 46.5247 13.572 46.5518C13.5556 46.579 13.5499 46.6113 13.556 46.6424C13.5621 46.6736 13.5795 46.7013 13.605 46.7203C13.6304 46.7393 13.662 46.7481 13.6936 46.7451C13.7252 46.7421 13.7545 46.7274 13.7759 46.7039C13.7972 46.6804 13.8091 46.6498 13.8091 46.6181C13.8092 46.6062 13.8075 46.5944 13.8042 46.583L13.9502 46.5315C14.0221 46.7321 14.1342 46.9159 14.2795 47.0718L14.1797 47.1651C14.1551 47.1423 14.1224 47.13 14.0889 47.1309C14.0553 47.1318 14.0234 47.1458 13.9999 47.1698C13.9765 47.1939 13.9633 47.2261 13.9633 47.2597C13.9632 47.2933 13.9763 47.3256 13.9997 47.3497C14.0231 47.3738 14.055 47.3879 14.0885 47.3888C14.1221 47.3898 14.1547 47.3776 14.1795 47.3549C14.2043 47.3322 14.2192 47.3007 14.2211 47.2672C14.223 47.2337 14.2117 47.2007 14.1897 47.1753L14.2891 47.082C14.2992 47.0928 14.3094 47.1033 14.3198 47.1137C14.4491 47.2428 14.5999 47.3483 14.7655 47.4255L14.7108 47.5441C14.6791 47.5332 14.6444 47.5351 14.6141 47.5494C14.5837 47.5637 14.5602 47.5892 14.5484 47.6206C14.5366 47.652 14.5376 47.6867 14.551 47.7174C14.5645 47.7481 14.5894 47.7724 14.6204 47.785C14.6514 47.7976 14.6862 47.7977 14.7173 47.7851C14.7483 47.7725 14.7732 47.7483 14.7867 47.7176C14.8002 47.6869 14.8012 47.6522 14.7895 47.6208C14.7778 47.5894 14.7542 47.5638 14.7239 47.5495L14.7783 47.4315C14.9655 47.5168 15.1676 47.5643 15.3731 47.5714L15.368 47.7238C15.3351 47.7257 15.3042 47.7403 15.2819 47.7646C15.2595 47.7889 15.2476 47.8209 15.2485 47.8539C15.2494 47.8869 15.2632 47.9182 15.2868 47.9412C15.3105 47.9642 15.3422 47.977 15.3752 47.977C15.4081 47.977 15.4398 47.9642 15.4635 47.9412C15.4871 47.9182 15.5009 47.8869 15.5018 47.8539C15.5027 47.8209 15.4908 47.7889 15.4684 47.7646C15.4461 47.7403 15.4152 47.7257 15.3823 47.7238L15.3872 47.5717C15.4025 47.5717 15.4164 47.5717 15.4311 47.5717C15.614 47.5718 15.7954 47.5402 15.9674 47.4781L16.0133 47.6029C15.9844 47.6155 15.9612 47.6384 15.9481 47.6671C15.9351 47.6958 15.9331 47.7284 15.9427 47.7585C15.9523 47.7885 15.9726 47.814 15.9999 47.8299C16.0271 47.8458 16.0593 47.8511 16.0902 47.8446C16.1211 47.8382 16.1485 47.8205 16.1671 47.795C16.1857 47.7696 16.1942 47.7381 16.191 47.7067C16.1877 47.6753 16.1729 47.6463 16.1495 47.6251C16.126 47.604 16.0956 47.5923 16.0641 47.5924C16.0514 47.5924 16.0388 47.5943 16.0267 47.598L15.9807 47.4732C16.1734 47.4011 16.35 47.2917 16.5004 47.1514L16.5923 47.2492C16.5702 47.2729 16.5582 47.3043 16.5588 47.3367C16.5595 47.3691 16.5727 47.4 16.5958 47.4228C16.6188 47.4456 16.6498 47.4585 16.6823 47.4588C16.7147 47.459 16.7459 47.4467 16.7694 47.4243C16.7928 47.4019 16.8066 47.3712 16.8078 47.3388C16.809 47.3064 16.7975 47.2748 16.7758 47.2508C16.7541 47.2267 16.7239 47.212 16.6915 47.2099C16.6592 47.2078 16.6273 47.2184 16.6026 47.2394L16.5107 47.1418C16.5214 47.1317 16.5318 47.1214 16.5422 47.1111C16.6406 47.0135 16.7258 46.9034 16.7955 46.7836L18.2136 47.553V47.6909H18.2542V47.7586H18.3346V44.2434H18.2542V44.3111H18.2136V44.449L16.7955 45.2184C16.7358 45.1149 16.6646 45.0185 16.5831 44.9311L16.7164 44.8063C16.738 44.8304 16.768 44.8452 16.8003 44.8475C16.8326 44.8497 16.8644 44.8394 16.8892 44.8185C16.9139 44.7977 16.9295 44.768 16.9327 44.7359C16.9359 44.7037 16.9265 44.6715 16.9064 44.6462C16.8863 44.6209 16.8571 44.6044 16.825 44.6003C16.7929 44.5961 16.7605 44.6047 16.7346 44.624C16.7087 44.6434 16.6914 44.6721 16.6864 44.7041C16.6813 44.736 16.6889 44.7687 16.7075 44.7951L16.5735 44.9207C16.5635 44.9101 16.5532 44.8996 16.5428 44.8892C16.4135 44.7595 16.2626 44.6535 16.0968 44.5758L16.161 44.4369C16.1711 44.4394 16.1813 44.4408 16.1917 44.4409C16.2237 44.441 16.2545 44.4291 16.2782 44.4076C16.3019 44.3861 16.3166 44.3565 16.3196 44.3246C16.3226 44.2928 16.3135 44.261 16.2942 44.2355C16.2749 44.21 16.2467 44.1926 16.2153 44.1868C16.1838 44.181 16.1513 44.1872 16.1242 44.2042C16.0971 44.2211 16.0773 44.2476 16.0687 44.2784C16.0601 44.3092 16.0634 44.3421 16.0778 44.3707C16.0923 44.3992 16.1169 44.4213 16.1468 44.4326L16.0834 44.5705C15.8963 44.4851 15.6942 44.4376 15.4888 44.4305L15.4935 44.2808C15.5186 44.2801 15.5429 44.272 15.5634 44.2576C15.5839 44.2432 15.5996 44.223 15.6087 44.1996C15.6178 44.1763 15.6199 44.1508 15.6145 44.1263C15.6092 44.1018 15.5968 44.0794 15.5788 44.0619C15.5609 44.0445 15.5381 44.0327 15.5135 44.0281C15.4889 44.0234 15.4634 44.0262 15.4403 44.0359C15.4172 44.0457 15.3975 44.0621 15.3837 44.083C15.3699 44.1039 15.3625 44.1284 15.3625 44.1535L15.3631 44.153ZM15.4311 44.4714C15.4454 44.4714 15.4596 44.4714 15.4737 44.4714L15.4595 44.9129C15.45 44.9129 15.4406 44.9129 15.4311 44.9129C15.3051 44.9128 15.18 44.9347 15.0615 44.9776L14.909 44.5639C15.0764 44.5029 15.253 44.4716 15.4311 44.4714ZM15.4587 44.9337L15.4269 45.9155C15.4206 45.9158 15.4144 45.9167 15.4083 45.9184L15.0688 44.9964C15.185 44.9544 15.3076 44.9329 15.4311 44.933C15.4405 44.933 15.4495 44.9336 15.4587 44.9337ZM15.4036 47.0684L15.4354 46.0866C15.4417 46.0863 15.4479 46.0853 15.454 46.0836L15.7935 47.0056C15.6773 47.0477 15.5547 47.0691 15.4311 47.069C15.422 47.069 15.4128 47.0685 15.4036 47.0684ZM15.378 45.9339L14.7066 45.2173C14.8079 45.1235 14.9264 45.0502 15.0556 45.0015L15.395 45.9233C15.3889 45.9262 15.3832 45.9297 15.378 45.9339ZM15.3676 45.9435C15.3625 45.9491 15.3582 45.9553 15.3549 45.9621L14.446 45.5889C14.5035 45.4523 14.5888 45.3291 14.6964 45.2271L15.3676 45.9435ZM15.3493 45.9751C15.3478 45.9801 15.3467 45.9852 15.346 45.9904L14.3642 45.9585C14.3689 45.8359 14.3948 45.715 14.4408 45.6013L15.3493 45.9751ZM15.3457 46.0057C15.3459 46.0116 15.3468 46.0175 15.3483 46.0232L14.422 46.3492C14.383 46.2372 14.3631 46.1193 14.3631 46.0007C14.3631 45.9915 14.3631 45.9823 14.3631 45.9731L15.3457 46.0057ZM15.353 46.0364C15.3559 46.0429 15.3596 46.049 15.364 46.0546L14.6475 46.7257C14.5503 46.6207 14.4751 46.4973 14.4264 46.3627L15.353 46.0364ZM15.3737 46.0649C15.3784 46.0691 15.3835 46.0728 15.389 46.0759L14.9772 46.9674C14.8572 46.9108 14.7487 46.8323 14.6573 46.7361L15.3737 46.0649ZM15.4025 46.0816C15.4088 46.0839 15.4154 46.0854 15.4221 46.0862L15.3901 47.0679C15.2521 47.0627 15.1165 47.0305 14.9908 46.9733L15.4025 46.0816ZM15.4681 46.0788C15.473 46.0765 15.4777 46.0738 15.482 46.0705L15.4929 46.0764L16.1558 46.7846C16.0545 46.8785 15.936 46.9518 15.8068 47.0007L15.4681 46.0788ZM15.5324 46.0978L16.3519 46.5421C16.3013 46.6277 16.239 46.7059 16.1669 46.7744L15.5324 46.0978ZM15.5027 46.0496C15.5047 46.0465 15.5065 46.0433 15.5082 46.0401L16.417 46.4133C16.402 46.4491 16.385 46.484 16.366 46.5179L15.5027 46.0496ZM15.5137 46.0269C15.5154 46.0219 15.5165 46.0168 15.5171 46.0116L16.4989 46.0434C16.4941 46.166 16.4682 46.2869 16.4223 46.4007L15.5137 46.0269ZM16.4992 46.0007C16.4992 46.01 16.4992 46.0191 16.4984 46.0283L15.5168 45.9964C15.5165 45.9905 15.5156 45.9847 15.514 45.9791L16.4405 45.6524C16.4794 45.7644 16.4992 45.8821 16.4992 46.0007ZM15.5094 45.9656C15.5073 45.9609 15.5048 45.9565 15.5019 45.9523L16.3653 45.4839C16.393 45.5336 16.4167 45.5855 16.436 45.6391L15.5094 45.9656ZM15.5631 45.8868L16.2145 45.2765C16.2664 45.3327 16.3121 45.3943 16.3509 45.4603L15.5631 45.8868ZM15.5139 45.9135L15.4812 45.9311C15.4788 45.9294 15.4762 45.9276 15.4734 45.9261L15.8851 45.0342C16.0052 45.091 16.1136 45.1695 16.205 45.2659L15.5139 45.9135ZM15.4606 45.9202C15.4542 45.9179 15.4477 45.9163 15.441 45.9155L15.473 44.9337C15.611 44.939 15.7466 44.9712 15.8722 45.0284L15.4606 45.9202ZM16.436 46.4211L16.8442 46.589C16.8229 46.6401 16.7988 46.69 16.772 46.7385L16.384 46.528C16.4032 46.4934 16.4206 46.4578 16.436 46.4214V46.4211ZM16.4413 46.4079C16.4881 46.2917 16.5146 46.1683 16.5194 46.0431L16.9597 46.0575C16.9535 46.2353 16.9162 46.4106 16.8496 46.5755L16.4413 46.4079ZM16.5197 46.029C16.5197 46.0195 16.5205 46.0102 16.5205 46.0007C16.5205 45.8797 16.5002 45.7596 16.4606 45.6454L16.8768 45.4988C16.9326 45.6602 16.961 45.8299 16.9608 46.0007C16.9608 46.0149 16.9608 46.0292 16.9608 46.0433L16.5197 46.029ZM16.4561 45.633C16.4363 45.5783 16.4122 45.5254 16.384 45.4746L16.772 45.2641C16.8114 45.3353 16.8449 45.4096 16.8722 45.4862L16.4561 45.633ZM14.8957 44.568L15.0489 44.9817C14.917 45.0314 14.7961 45.1062 14.6927 45.202L14.3912 44.8803C14.5371 44.7438 14.7086 44.6375 14.8957 44.5674V44.568ZM14.3495 44.9204C14.3596 44.9104 14.3699 44.9005 14.3801 44.8908L14.6824 45.2117C14.5727 45.3157 14.4857 45.4414 14.427 45.5807L14.0187 45.4131C14.0956 45.2285 14.208 45.0607 14.3495 44.9193V44.9204ZM14.0124 45.4274L14.422 45.5939C14.3749 45.71 14.3485 45.8334 14.3438 45.9585L13.9034 45.9443C13.9094 45.7666 13.9464 45.5913 14.0127 45.4263L14.0124 45.4274ZM13.9011 46.0007C13.9011 45.9864 13.9011 45.9723 13.9011 45.9581L14.3415 45.9725C14.3415 45.9818 14.3415 45.9912 14.3415 46.0007C14.3415 46.1216 14.3617 46.2417 14.4013 46.356L13.985 46.5027C13.9292 46.3412 13.9009 46.1715 13.9011 46.0007ZM13.9896 46.5161L14.4066 46.3698C14.4563 46.5071 14.533 46.6331 14.6323 46.7402L14.3106 47.0417C14.1691 46.8902 14.06 46.7115 13.9901 46.5164L13.9896 46.5161ZM14.349 47.0829C14.3389 47.0728 14.3291 47.0627 14.3193 47.0523L14.6411 46.7506C14.7343 46.8489 14.845 46.929 14.9675 46.9869L14.7832 47.3875C14.622 47.3119 14.4753 47.2087 14.3495 47.0826L14.349 47.0829ZM14.7963 47.3935L14.9812 46.9926C15.1095 47.0507 15.2479 47.0833 15.3887 47.0885L15.3745 47.5288C15.1747 47.5221 14.9782 47.4761 14.7963 47.3935ZM15.4311 47.5314C15.4169 47.5314 15.4028 47.5314 15.3886 47.5314L15.4028 47.0909C15.4123 47.0909 15.4217 47.0917 15.4311 47.0917C15.5573 47.0913 15.6824 47.0689 15.8008 47.0257L15.9541 47.4393C15.7864 47.5001 15.6095 47.531 15.4311 47.5308V47.5314ZM15.9674 47.4353L15.8142 47.0217C15.946 46.9719 16.0669 46.8971 16.1702 46.8012L16.4719 47.1229C16.3256 47.259 16.1539 47.365 15.9666 47.4347L15.9674 47.4353ZM16.5136 47.0829C16.5035 47.0931 16.4933 47.1029 16.4829 47.1127L16.1813 46.7909C16.2549 46.7205 16.3184 46.6402 16.3699 46.5522L16.7581 46.7632C16.6907 46.88 16.6082 46.9874 16.5128 47.0826L16.5136 47.0829ZM18.2142 44.4818V47.5207L16.81 46.7589C16.8375 46.7092 16.8622 46.6581 16.8842 46.6057L17.0144 46.6595C17.0042 46.6913 17.0067 46.7259 17.0216 46.7558C17.0364 46.7858 17.0624 46.8088 17.0939 46.8199C17.1255 46.831 17.1601 46.8294 17.1905 46.8154C17.2208 46.8013 17.2445 46.776 17.2565 46.7448C17.2685 46.7136 17.2678 46.6789 17.2546 46.6482C17.2414 46.6175 17.2168 46.5931 17.1859 46.5803C17.155 46.5674 17.1203 46.5671 17.0893 46.5795C17.0582 46.5918 17.0331 46.6158 17.0195 46.6463L16.8886 46.5921C16.9572 46.4224 16.9955 46.2421 17.0018 46.0592L17.1359 46.0635C17.1377 46.0967 17.1524 46.1278 17.1769 46.1504C17.2014 46.1729 17.2336 46.1849 17.2669 46.184C17.3001 46.1831 17.3316 46.1693 17.3548 46.1454C17.378 46.1216 17.3909 46.0897 17.3909 46.0564C17.3909 46.0232 17.378 45.9913 17.3548 45.9675C17.3316 45.9436 17.3001 45.9298 17.2669 45.9289C17.2336 45.928 17.2014 45.94 17.1769 45.9625C17.1524 45.9851 17.1377 46.0162 17.1359 46.0494L17.002 46.045C17.002 46.0304 17.002 46.0157 17.002 46.001C17.0022 45.8253 16.973 45.6509 16.9156 45.4848L17.0458 45.4389C17.0592 45.4673 17.0825 45.4898 17.1114 45.502C17.1403 45.5143 17.1727 45.5154 17.2025 45.5053C17.2322 45.4951 17.2571 45.4743 17.2724 45.4469C17.2877 45.4195 17.2924 45.3875 17.2856 45.3568C17.2787 45.3262 17.2608 45.2992 17.2352 45.2809C17.2097 45.2627 17.1783 45.2545 17.1471 45.258C17.1159 45.2614 17.0871 45.2763 17.0662 45.2997C17.0452 45.3231 17.0337 45.3534 17.0337 45.3848C17.0337 45.3987 17.036 45.4125 17.0406 45.4257L16.911 45.4717C16.8829 45.3929 16.8485 45.3165 16.808 45.2434L18.2142 44.4818ZM16.7587 45.2391L16.3699 45.4491C16.33 45.3819 16.2831 45.3191 16.2298 45.2619L16.5516 44.9604C16.6307 45.0451 16.7 45.1385 16.7581 45.2388L16.7587 45.2391ZM16.5136 44.9196C16.5237 44.9298 16.5335 44.94 16.5433 44.9503L16.2216 45.252C16.1283 45.1537 16.0176 45.0735 15.8951 45.0156L16.0801 44.6148C16.2409 44.6904 16.3873 44.7935 16.5128 44.9193L16.5136 44.9196ZM16.067 44.6089L15.8811 45.0094C15.7529 44.951 15.6144 44.9182 15.4736 44.9129L15.488 44.4726C15.6878 44.4794 15.8843 44.5256 16.0662 44.6086L16.067 44.6089Z" fill="#39C6FD"/>
<path d="M18.528 40.8988H14.1145L14.0325 40.6064H13.7456L13.5678 40.1189H13.076L12.7618 39.5897L12.83 39.3249H13.3494L13.4039 39.1161H13.65L13.6909 38.935H13.9642L14.0051 38.7539H18.528V40.8988Z" fill="#39C6FD"/>
<path d="M10.5092 35.5059H10.4117V35.6285H10.1043V35.677H10.0269V36.2597H9.93726V36.5416H10.0269V36.5906H9.89835V36.8725H10.0269V36.9894H10.1043V37.038H10.4117V37.1606H10.5092V37.2218H18.528V35.4446H10.5092V35.5059Z" fill="#39C6FD"/>
<path d="M13.7791 33.3873H13.5557L12.8816 31.7829H18.528V34.2043H13.8928L13.7791 33.3873Z" fill="#39C6FD"/>
<path d="M14.4833 49.6331L14.805 47.64H18.528V49.8462H14.9073L14.4833 49.6331Z" fill="#39C6FD"/>
<path d="M12.5274 42.7373H12.2404L12.2375 42.7945H12.1301L12.0491 43.1228V43.7225L12.1464 44.3505L12.2598 44.5789H12.3454L12.3497 44.636H12.6232L12.6121 44.5789H12.7016L12.7188 44.636H18.528V42.7373H12.6368L12.627 42.7945H12.5274V42.7373Z" fill="#39C6FD"/>
<path d="M16.2758 32.5994L16.2989 32.6781H16.38L16.3218 33.059L16.3568 33.361H17.4618L17.5814 33.5219H15.663L15.5404 33.813V34.0734H15.4791V34.5024H15.5557V34.9161H18.0377V35.4523H16.4854C16.4331 35.4523 16.3907 35.4996 16.3907 35.5582L16.3974 35.5595H16.1912C16.178 35.5603 16.1656 35.5663 16.1567 35.5762C16.1479 35.5861 16.1433 35.5991 16.144 35.6124C16.1257 35.9599 16.1257 36.3082 16.144 36.6557C16.1433 36.669 16.1479 36.682 16.1567 36.6919C16.1656 36.7018 16.178 36.7078 16.1912 36.7086H16.3974L16.3907 36.71C16.3907 36.7685 16.4331 36.8158 16.4854 36.8158H17.3329V37.0533H15.7855L15.571 37.4363V37.6508H15.3566V38.7233H15.5251V39.8264H15.617V40.1788H15.7855V40.5924H17.716V41.4351H17.0089V41.6649H16.8886V41.8066L16.5669 41.829C16.5657 41.828 16.5642 41.8274 16.5626 41.8274C16.561 41.8274 16.5595 41.828 16.5583 41.829L16.3978 41.84C16.3968 41.8395 16.3957 41.8392 16.3946 41.8392C16.3935 41.8392 16.3924 41.8395 16.3915 41.84L15.9798 41.8685V41.8265H15.9617V41.9099H15.7702C15.768 41.9026 15.7633 41.8964 15.7569 41.8923C15.7506 41.8882 15.7429 41.8866 15.7354 41.8877C15.7279 41.8888 15.7211 41.8925 15.7161 41.8983C15.7111 41.904 15.7084 41.9113 15.7084 41.9189C15.7084 41.9265 15.7111 41.9338 15.7161 41.9395C15.7211 41.9453 15.7279 41.949 15.7354 41.9501C15.7429 41.9512 15.7506 41.9496 15.7569 41.9455C15.7633 41.9414 15.768 41.9352 15.7702 41.9279H15.9607V42.009H15.9787V41.9744L16.8877 42.051V43.4268H16.998V43.5647H17.1685V43.7332H18.2522V43.9937H14.422V43.9477H14.3301V44.0549H14.1462V45.1427H14.3301V45.25H14.422V45.1887H14.7377V45.4882L14.959 45.7621H17.4402V46.0237H16.1839L16.0153 46.422V47.4485L16.1686 47.8928H18.1296V48.115H18.5433V32.5337H16.2989L16.2758 32.5994ZM16.8886 41.9197V41.9393L16.8784 41.9295L16.8886 41.9197ZM16.7613 42.0222L16.6634 41.9253L16.7583 41.8326L16.8589 41.9295L16.7613 42.0222ZM16.7733 41.8282L16.8886 41.8201V41.901L16.8687 41.92L16.7733 41.8282ZM16.7412 41.8304L16.6539 41.9157L16.5792 41.8415L16.7412 41.8304ZM16.6443 41.9253L16.5625 42.0053L16.4817 41.9247L16.5625 41.8443L16.6443 41.9253ZM16.3944 41.8567L16.4626 41.9247L16.3944 41.9929L16.3264 41.9247L16.3944 41.8567ZM16.2514 41.9805L16.1952 41.9243L16.2514 41.869L16.3072 41.9247L16.2514 41.9805ZM16.5425 41.8444L16.4716 41.9152L16.4103 41.8539L16.5425 41.8444ZM16.3754 41.8559L16.3161 41.9152L16.2646 41.8636L16.3754 41.8559ZM16.2349 41.8657L16.1849 41.9148L16.1424 41.8722L16.2349 41.8657ZM16.1027 41.8749L16.0414 41.9161L15.991 41.8826L16.1027 41.8749ZM15.9786 41.8903L16.0307 41.9241L15.9793 41.959L15.9786 41.8903ZM15.9967 41.9635L16.0426 41.9328L16.1022 41.9713L15.9967 41.9635ZM16.0541 41.9244L16.1263 41.8752L16.1753 41.9243L16.1263 41.9725L16.0541 41.9244ZM16.1424 41.9757L16.1849 41.9339L16.2346 41.9836L16.1424 41.9757ZM16.2649 41.986L16.3164 41.9345L16.3777 41.9958L16.2649 41.986ZM16.4082 41.9981L16.4719 41.9345L16.5473 42.0098L16.4082 41.9981ZM16.5747 42.0121L16.6535 41.9355L16.7454 42.0274L16.5747 42.0121ZM16.7739 42.0289L16.8681 41.9391L16.8886 41.958V42.0381L16.7739 42.0289Z" fill="#39C6FD"/>
<path d="M15.9054 2.77203L18.7591 0.470059L0.574951 0.460815V42.0832L20.7066 60.7013L40.8426 42.0712V0.460815H22.8368L25.6953 2.77203H38.5214V41.0717L20.7139 57.5495L2.88749 41.0636V2.77203H15.9054Z" fill="#39C6FD"/>
<path fill-rule="evenodd" clip-rule="evenodd" d="M5.35211 5.98908H16.9527L20.7422 2.8301L24.495 5.98759H36.2594V13.39L24.9687 22.2033V22.8995H23.1535V24.7882H24.9687V27.3817H23.1487V52.1931L20.7696 54.667L18.5348 52.1931V27.3817H16.4604V24.7845H18.5289V22.9035L16.4604 22.8995V21.9994L5.35211 13.3906V5.98908ZM8.5127 9.17437H16.1707L20.7216 12.9994L25.3013 9.17199H33.0755V11.8742L24.7697 18.3295L20.7574 16.5791L16.8941 18.3087L8.5127 11.8302V9.17437ZM20.7248 5.85368L18.2723 7.90716L20.7238 9.96827L23.1785 7.90965L20.7248 5.85368Z" fill="#39C6FD"/>
</svg>
