<svg width="489" height="976" viewBox="0 0 489 976" fill="none" xmlns="http://www.w3.org/2000/svg">
<g filter="url(#filter0_f_94_7)">
<circle cx="488.073" cy="487.979" r="121.706" fill="#39C6FD"/>
</g>
<path d="M404.594 531.446C404.476 531.449 404.359 531.418 404.256 531.359C404.153 531.3 404.068 531.214 404.011 531.11L379.08 487.991C379.028 487.89 379 487.778 379 487.664C379 487.55 379.028 487.437 379.08 487.336C379.138 487.233 379.223 487.147 379.326 487.087C379.428 487.028 379.545 486.998 379.664 487H429.507C429.626 486.998 429.743 487.028 429.846 487.087C429.948 487.147 430.033 487.233 430.091 487.336C430.144 487.437 430.171 487.55 430.171 487.664C430.171 487.778 430.144 487.89 430.091 487.991L405.161 531.163C405.098 531.255 405.013 531.328 404.914 531.378C404.815 531.427 404.705 531.451 404.594 531.446ZM380.814 488.274L404.594 529.465L428.357 488.274H380.814Z" fill="#39C6FD"/>
<path d="M429.59 488.5C429.474 488.5 429.36 488.47 429.26 488.41C429.16 488.351 429.079 488.266 429.024 488.163L404.094 444.991C404.032 444.893 404 444.779 404 444.664C404 444.548 404.032 444.435 404.094 444.336C404.151 444.233 404.236 444.147 404.339 444.087C404.442 444.028 404.559 443.998 404.677 444H454.52C454.636 443.999 454.75 444.03 454.85 444.089C454.95 444.149 455.032 444.234 455.087 444.336C455.148 444.435 455.18 444.548 455.18 444.664C455.18 444.779 455.148 444.893 455.087 444.991L430.174 488.216C430.11 488.31 430.022 488.386 429.92 488.435C429.817 488.485 429.704 488.507 429.59 488.5ZM405.828 445.327L429.59 486.447L453.37 445.256L405.828 445.327Z" fill="#39C6FD"/>
<path d="M354.679 531.446C354.562 531.447 354.448 531.416 354.349 531.357C354.249 531.298 354.167 531.212 354.112 531.11L329.094 487.991C329.032 487.893 329 487.779 329 487.664C329 487.548 329.032 487.434 329.094 487.336C329.15 487.235 329.232 487.151 329.331 487.092C329.431 487.033 329.544 487.001 329.66 487H379.45C379.566 486.999 379.68 487.03 379.779 487.089C379.879 487.149 379.961 487.234 380.016 487.336C380.077 487.434 380.109 487.548 380.109 487.664C380.109 487.779 380.077 487.893 380.016 487.991L355.103 531.163C355.055 531.236 354.993 531.299 354.92 531.348C354.847 531.397 354.765 531.43 354.679 531.446ZM330.898 488.274L354.679 529.465L378.459 488.274H330.898Z" fill="#39C6FD"/>
<path d="M354.595 531.472H304.664C304.545 531.474 304.428 531.444 304.326 531.385C304.223 531.325 304.138 531.239 304.08 531.136C304.028 531.035 304 530.922 304 530.808C304 530.694 304.028 530.582 304.08 530.481L329.011 487.309C329.073 487.214 329.159 487.136 329.259 487.082C329.36 487.028 329.472 487 329.586 487C329.699 487 329.812 487.028 329.912 487.082C330.012 487.136 330.098 487.214 330.161 487.309L355.091 530.481C355.144 530.582 355.171 530.694 355.171 530.808C355.171 530.922 355.144 531.035 355.091 531.136C355.041 531.227 354.97 531.305 354.884 531.364C354.798 531.422 354.699 531.459 354.595 531.472ZM305.903 530.145H353.357L329.577 488.972L305.903 530.145Z" fill="#39C6FD"/>
<path d="M429.59 575.072C429.474 575.073 429.36 575.042 429.26 574.983C429.16 574.923 429.079 574.838 429.024 574.736L404.094 531.492C404.032 531.394 404 531.281 404 531.165C404 531.049 404.032 530.936 404.094 530.838C404.151 530.734 404.236 530.648 404.339 530.589C404.442 530.53 404.559 530.499 404.677 530.502H454.52C454.636 530.501 454.75 530.532 454.85 530.591C454.95 530.65 455.032 530.735 455.087 530.838C455.148 530.936 455.18 531.049 455.18 531.165C455.18 531.281 455.148 531.394 455.087 531.492L430.174 574.665C430.126 574.782 430.046 574.882 429.942 574.955C429.839 575.027 429.716 575.067 429.59 575.072ZM405.828 531.899L429.59 573.09L453.37 531.899H405.828Z" fill="#39C6FD"/>
<path d="M379.19 488.115C379.074 488.116 378.96 488.085 378.86 488.025C378.76 487.966 378.678 487.881 378.624 487.779L353.693 444.606C353.632 444.508 353.6 444.394 353.6 444.279C353.6 444.163 353.632 444.05 353.693 443.951C353.75 443.85 353.832 443.766 353.931 443.707C354.031 443.648 354.144 443.616 354.26 443.615H403.961C404.077 443.614 404.191 443.645 404.291 443.705C404.391 443.764 404.472 443.849 404.527 443.951C404.588 444.05 404.621 444.163 404.621 444.279C404.621 444.394 404.588 444.508 404.527 444.606L379.615 487.779C379.572 487.862 379.512 487.935 379.439 487.993C379.365 488.051 379.281 488.092 379.19 488.115ZM355.41 444.942L379.19 486.133L402.97 444.942H355.41Z" fill="#39C6FD"/>
<path d="M379.19 488.115H329.258C329.14 488.117 329.023 488.087 328.92 488.028C328.817 487.968 328.732 487.882 328.675 487.779C328.622 487.678 328.594 487.565 328.594 487.451C328.594 487.337 328.622 487.225 328.675 487.124L353.605 443.952C353.668 443.857 353.753 443.779 353.854 443.725C353.954 443.671 354.066 443.643 354.18 443.643C354.294 443.643 354.406 443.671 354.506 443.725C354.607 443.779 354.692 443.857 354.755 443.952L379.685 487.124C379.738 487.225 379.766 487.337 379.766 487.451C379.766 487.565 379.738 487.678 379.685 487.779C379.635 487.87 379.564 487.948 379.478 488.007C379.392 488.065 379.293 488.102 379.19 488.115ZM330.409 486.77H377.951L354.171 445.615L330.409 486.77Z" fill="#39C6FD"/>
<path d="M329.577 574.5C329.461 574.499 329.348 574.467 329.248 574.408C329.149 574.349 329.067 574.264 329.011 574.163L304.08 530.991C304.028 530.89 304 530.778 304 530.664C304 530.55 304.028 530.437 304.08 530.336C304.138 530.233 304.223 530.147 304.326 530.087C304.428 530.028 304.545 529.998 304.664 530H354.595C354.714 529.998 354.831 530.028 354.934 530.087C355.037 530.147 355.122 530.233 355.179 530.336C355.232 530.437 355.26 530.55 355.26 530.664C355.26 530.778 355.232 530.89 355.179 530.991L330.249 574.163C330.185 574.282 330.086 574.377 329.966 574.438C329.846 574.498 329.71 574.519 329.577 574.5ZM305.814 531.327L329.577 572.518L353.357 531.256L305.814 531.327Z" fill="#39C6FD"/>
<path d="M503.59 617.446C503.474 617.445 503.361 617.414 503.262 617.355C503.162 617.296 503.08 617.211 503.024 617.11L478.094 573.991C478.032 573.893 478 573.779 478 573.664C478 573.548 478.032 573.435 478.094 573.336C478.151 573.233 478.236 573.147 478.339 573.087C478.442 573.028 478.559 572.998 478.677 573H528.52C528.638 573.002 528.754 573.033 528.856 573.092C528.958 573.151 529.044 573.235 529.104 573.336C529.157 573.437 529.184 573.55 529.184 573.664C529.184 573.778 529.157 573.89 529.104 573.991L504.174 617.163C504.11 617.257 504.022 617.333 503.92 617.382C503.817 617.432 503.704 617.454 503.59 617.446ZM479.757 574.274L503.519 615.465L527.299 574.274H479.757Z" fill="#39C6FD"/>
<path d="M404.589 444.609C404.475 444.61 404.363 444.581 404.264 444.525C404.165 444.469 404.082 444.388 404.023 444.291L379.093 401.154C379.032 401.052 379 400.936 379 400.817C379 400.699 379.032 400.583 379.093 400.481C379.155 400.381 379.24 400.298 379.342 400.239C379.444 400.18 379.559 400.148 379.677 400.145H429.52C429.635 400.148 429.748 400.18 429.847 400.239C429.946 400.298 430.028 400.381 430.086 400.481C430.147 400.583 430.179 400.699 430.179 400.817C430.179 400.936 430.147 401.052 430.086 401.154L405.173 444.326C405.107 444.417 405.019 444.491 404.917 444.54C404.815 444.59 404.702 444.613 404.589 444.609ZM380.827 401.437L404.589 442.627L428.37 401.437H380.827Z" fill="#39C6FD"/>
<path d="M429.52 401.436H379.677C379.564 401.441 379.451 401.417 379.35 401.368C379.248 401.318 379.16 401.245 379.093 401.153C379.032 401.052 379 400.936 379 400.817C379 400.699 379.032 400.583 379.093 400.481L404.023 357.309C404.086 357.214 404.172 357.136 404.272 357.082C404.372 357.028 404.484 357 404.598 357C404.712 357 404.824 357.028 404.925 357.082C405.025 357.136 405.11 357.214 405.173 357.309L430.086 400.481C430.146 400.581 430.178 400.694 430.179 400.811C430.18 400.927 430.15 401.041 430.093 401.142C430.035 401.243 429.951 401.327 429.851 401.385C429.75 401.443 429.636 401.473 429.52 401.472V401.436ZM380.827 400.109H428.37L404.589 358.936L380.827 400.109Z" fill="#39C6FD"/>
<path d="M528.647 488.754H478.804C478.688 488.754 478.574 488.724 478.473 488.666C478.372 488.608 478.289 488.525 478.231 488.424C478.174 488.323 478.144 488.209 478.145 488.092C478.146 487.976 478.178 487.862 478.238 487.763L503.151 444.59C503.214 444.495 503.299 444.418 503.399 444.364C503.5 444.31 503.612 444.282 503.726 444.282C503.84 444.282 503.952 444.31 504.052 444.364C504.152 444.418 504.238 444.495 504.301 444.59L529.231 487.763C529.292 487.864 529.324 487.981 529.324 488.099C529.324 488.217 529.292 488.334 529.231 488.435C529.168 488.533 529.082 488.614 528.98 488.669C528.878 488.725 528.763 488.754 528.647 488.754ZM479.954 487.427H527.515L503.734 446.254L479.954 487.427Z" fill="#39C6FD"/>
<path d="M478.776 574.464C478.662 574.465 478.55 574.436 478.451 574.38C478.351 574.324 478.268 574.243 478.21 574.146L453.28 531.009C453.219 530.907 453.187 530.791 453.187 530.672C453.187 530.554 453.219 530.438 453.28 530.336C453.338 530.237 453.421 530.155 453.52 530.096C453.619 530.037 453.731 530.004 453.846 530H503.706C503.822 530.003 503.934 530.035 504.033 530.094C504.133 530.153 504.215 530.236 504.273 530.336C504.333 530.438 504.365 530.554 504.365 530.672C504.365 530.791 504.333 530.907 504.273 531.009L479.325 574.146C479.264 574.238 479.183 574.314 479.088 574.37C478.993 574.425 478.886 574.457 478.776 574.464ZM454.996 531.292L478.776 572.482L502.556 531.292H454.996Z" fill="#39C6FD"/>
<path d="M453.874 358.499C453.76 358.498 453.649 358.469 453.55 358.413C453.451 358.357 453.368 358.278 453.308 358.181L428.377 315.009C428.317 314.907 428.285 314.791 428.285 314.672C428.285 314.554 428.317 314.438 428.377 314.336C428.439 314.236 428.525 314.153 428.627 314.094C428.729 314.035 428.844 314.003 428.961 314H478.804C478.921 314.005 479.036 314.038 479.138 314.096C479.239 314.155 479.325 314.237 479.388 314.336C479.441 314.44 479.469 314.556 479.469 314.672C479.469 314.789 479.441 314.904 479.388 315.009L454.458 358.216C454.391 358.308 454.303 358.381 454.201 358.431C454.099 358.48 453.987 358.504 453.874 358.499ZM430.041 315.327L453.874 356.447L477.654 315.256L430.041 315.327Z" fill="#39C6FD"/>
<defs>
<filter id="filter0_f_94_7" x="0.367554" y="0.273438" width="975.411" height="975.412" filterUnits="userSpaceOnUse" color-interpolation-filters="sRGB">
<feFlood flood-opacity="0" result="BackgroundImageFix"/>
<feBlend mode="normal" in="SourceGraphic" in2="BackgroundImageFix" result="shape"/>
<feGaussianBlur stdDeviation="183" result="effect1_foregroundBlur_94_7"/>
</filter>
</defs>
</svg>
